<svg xmlns="http://www.w3.org/2000/svg" viewBox="0 0 240 240" aria-hidden="true">
    <path d="M120 0c66.274 0 120 53.726 120 120s-53.726 120-120 120S0 186.274 0 120 53.726 0 120 0z" fill="#229ED9"/>
    <path d="M54.7 118.2c41.7-18.2 69.5-30.2 83.5-36.1 39.8-16.6 48.1-19.5 53.5-19.6 1.2 0 3.9.3 5.7 1.9 1.5 1.4 1.9 3.3 2.1 4.7.2 1.4.5 4.6.3 7.1-2.8 29.8-14.9 102-21.1 135.3-2.6 14.1-7.7 18.8-12.6 19.3-10.7 1-18.8-7.1-29.2-14-16.2-10.6-25.4-17.2-41-27.6-18.2-12-6.4-18.6 4-29.4 2.8-2.9 50.7-46.4 51.5-50.3.1-.5.3-2.2-1-3.1s-3.1-.6-4.4-.4c-1.9.4-32 20.4-90.1 60.1-8.6 6-16.4 8.9-23.3 8.8-7.6-.1-22.2-4.3-33.1-7.9-13.3-4.3-24-6.6-23.1-14.1.5-3.8 5.7-7.7 16.1-12.1z" fill="#fff"/>
</svg>